<svg width="859" height="403" viewBox="0 0 859 403" fill="none" xmlns="http://www.w3.org/2000/svg">
<path d="M234.329 20.3169C236.4 12.6715 233.429 5.94895 226.06 4.46688C216.524 2.54908 200.399 0.5 175.028 0.5C149.504 0.5 131.84 2.57391 120.934 4.50161C112.564 5.98105 105.704 12.8545 103.582 20.6873L5.60772 382.29C3.68383 389.391 6.11015 395.774 12.7454 397.562C22.1542 400.097 38.8336 402.988 65.9763 402.988C93.0673 402.988 110.885 400.108 121.315 397.576C128.676 395.789 134.277 389.59 136.139 382.716L234.329 20.3169Z" fill="#D93F0C"/>
<path d="M646.329 20.3169C648.4 12.6715 645.429 5.94895 638.06 4.46688C628.524 2.54908 612.399 0.5 587.028 0.5C561.504 0.5 543.84 2.57391 532.934 4.50161C524.564 5.98105 517.704 12.8545 515.582 20.6873L417.608 382.29C415.684 389.391 418.11 395.774 424.745 397.562C434.154 400.097 450.834 402.988 477.976 402.988C505.067 402.988 522.885 400.108 533.315 397.576C540.676 395.789 546.277 389.59 548.139 382.716L646.329 20.3169Z" fill="#D93F0C"/>
<path d="M442.329 20.3169C444.4 12.6715 441.429 5.94895 434.06 4.46688C424.524 2.54908 408.399 0.5 383.028 0.5C357.504 0.5 339.84 2.57391 328.934 4.50161C320.564 5.98105 313.704 12.8545 311.582 20.6873L213.608 382.29C211.684 389.391 214.11 395.774 220.745 397.562C230.154 400.097 246.834 402.988 273.976 402.988C301.067 402.988 318.885 400.108 329.315 397.576C336.676 395.789 342.277 389.59 344.139 382.716L442.329 20.3169Z" fill="#D93F0C"/>
<path d="M111.369 20.3169C109.298 12.6715 112.269 5.94895 119.639 4.46688C129.174 2.54908 145.299 0.5 170.67 0.5C196.194 0.5 213.858 2.57391 224.764 4.50161C233.134 5.98105 239.994 12.8545 242.116 20.6873L340.091 382.29C342.014 389.391 339.588 395.774 332.953 397.562C323.544 400.097 306.865 402.988 279.722 402.988C252.631 402.988 234.813 400.108 224.383 397.576C217.022 395.789 211.422 389.59 209.559 382.716L111.369 20.3169Z" fill="#F35826"/>
<path d="M315.369 20.3169C313.298 12.6715 316.269 5.94895 323.639 4.46688C333.174 2.54908 349.299 0.5 374.67 0.5C400.194 0.5 417.858 2.57391 428.764 4.50161C437.134 5.98105 443.994 12.8545 446.116 20.6873L544.091 382.29C546.014 389.391 543.588 395.774 536.953 397.562C527.544 400.097 510.865 402.988 483.722 402.988C456.631 402.988 438.813 400.108 428.383 397.576C421.022 395.789 415.422 389.59 413.559 382.716L315.369 20.3169Z" fill="#F35826"/>
<path d="M853.329 20.3169C855.4 12.6715 852.429 5.94895 845.06 4.46688C835.524 2.54908 819.399 0.5 794.028 0.5C768.504 0.5 750.84 2.57391 739.934 4.50161C731.564 5.98105 724.704 12.8545 722.582 20.6873L624.608 382.29C622.684 389.391 625.11 395.774 631.745 397.562C641.154 400.097 657.834 402.988 684.976 402.988C712.067 402.988 729.885 400.108 740.315 397.576C747.676 395.789 753.277 389.59 755.139 382.716L853.329 20.3169Z" fill="#D93F0C"/>
<path d="M520.369 20.3169C518.298 12.6715 521.269 5.94895 528.639 4.46688C538.174 2.54908 554.299 0.5 579.67 0.5C605.194 0.5 622.858 2.57391 633.764 4.50161C642.134 5.98105 648.994 12.8545 651.116 20.6873L749.091 382.29C751.014 389.391 748.588 395.774 741.953 397.562C732.544 400.097 715.865 402.988 688.722 402.988C661.631 402.988 643.813 400.108 633.383 397.576C626.022 395.789 620.422 389.59 618.559 382.716L520.369 20.3169Z" fill="#F35826"/>
</svg>
