<?xml version="1.0" encoding="UTF-8" standalone="no"?>
<!DOCTYPE svg PUBLIC "-//W3C//DTD SVG 1.1//EN" "http://www.w3.org/Graphics/SVG/1.1/DTD/svg11.dtd">
<svg width="100%" height="100%" viewBox="0 0 1200 468" version="1.1" xmlns="http://www.w3.org/2000/svg" xmlns:xlink="http://www.w3.org/1999/xlink" xml:space="preserve" xmlns:serif="http://www.serif.com/" style="fill-rule:evenodd;clip-rule:evenodd;stroke-linejoin:round;stroke-miterlimit:2;">
    <g transform="matrix(1,0,0,1,-361.736,-306.668)">
        <g id="Layer-1" serif:id="Layer 1">
            <g transform="matrix(1,0,0,1,1468.01,699.321)">
                <path d="M0,-317.428C-12.76,-360.84 -52.898,-392.653 -100.386,-392.653C-147.878,-392.653 -188.016,-360.843 -200.778,-317.431C-209.331,-312.189 -217.425,-306.28 -224.988,-299.714C-244.189,-321.621 -272.289,-335.544 -303.64,-335.544C-323.627,-335.544 -342.327,-329.916 -358.227,-320.158C-374.128,-329.916 -392.827,-335.544 -412.815,-335.544C-432.802,-335.544 -451.496,-329.916 -467.402,-320.158C-483.303,-329.916 -501.996,-335.544 -521.984,-335.544C-541.971,-335.544 -560.671,-329.916 -576.571,-320.158C-592.471,-329.916 -611.171,-335.544 -631.159,-335.544L-658.449,-335.544C-673.815,-335.544 -688.098,-331.01 -700.138,-323.286C-713.093,-333.056 -729.159,-338.918 -746.633,-338.918L-753.731,-338.918C-775.361,-338.918 -794.895,-330.021 -808.938,-315.717C-838.297,-334.453 -873.393,-344.951 -912.155,-344.951C-1024.64,-344.951 -1106.27,-256.592 -1106.27,-134.86C-1106.27,-13.128 -1024.64,75.225 -912.155,75.225C-873.392,75.225 -838.295,64.727 -808.937,45.991C-794.895,60.295 -775.36,69.192 -753.731,69.192L-746.633,69.192C-708.903,69.192 -677.518,42.173 -670.672,6.436C-653.692,41.369 -617.951,65.564 -576.571,65.564C-556.584,65.564 -537.89,59.929 -521.984,50.178C-506.083,59.929 -487.383,65.564 -467.396,65.564C-447.409,65.564 -428.715,59.936 -412.815,50.178C-396.908,59.936 -378.214,65.564 -358.227,65.564C-338.24,65.564 -319.546,59.936 -303.64,50.178C-287.739,59.936 -269.046,65.564 -249.058,65.564C-230.487,65.564 -213.454,59.007 -200.116,48.104C-171.477,65.486 -137.643,75.225 -100.392,75.225C12.09,75.225 93.726,-13.128 93.726,-134.86C93.726,-215.967 57.456,-282.211 0,-317.428" style="fill:rgb(255,225,0);fill-rule:nonzero;"/>
            </g>
            <g transform="matrix(1,0,0,1,1218.95,439.457)">
                <path d="M0,253.15C-16.928,253.15 -30.695,239.378 -30.695,222.449L-30.695,30.695C-30.695,17.527 -41.414,6.808 -54.581,6.808C-67.755,6.808 -78.474,17.527 -78.474,30.695L-78.474,222.449C-78.474,239.378 -92.241,253.15 -109.169,253.15C-126.097,253.15 -139.864,239.378 -139.864,222.449L-139.864,30.695C-139.864,17.527 -150.583,6.808 -163.756,6.808C-176.924,6.808 -187.643,17.527 -187.643,30.695L-187.643,222.449C-187.643,239.378 -201.416,253.15 -218.344,253.15C-235.272,253.15 -249.038,239.378 -249.038,222.449L-249.038,30.695C-249.038,17.527 -259.758,6.808 -272.925,6.808C-286.099,6.808 -296.818,17.527 -296.818,30.695L-296.818,222.449C-296.818,239.378 -310.585,253.15 -327.513,253.15C-344.441,253.15 -358.207,239.378 -358.207,222.449L-358.207,30.695C-358.207,17.527 -368.927,6.808 -382.1,6.808L-409.391,6.808L-409.391,0L-382.1,0C-365.172,0 -351.4,13.767 -351.4,30.695L-351.4,222.449C-351.4,235.623 -340.681,246.342 -327.513,246.342C-314.345,246.342 -303.626,235.623 -303.626,222.449L-303.626,30.695C-303.626,13.767 -289.854,0 -272.925,0C-255.997,0 -242.231,13.767 -242.231,30.695L-242.231,222.449C-242.231,235.623 -231.512,246.342 -218.344,246.342C-205.17,246.342 -194.451,235.623 -194.451,222.449L-194.451,30.695C-194.451,13.767 -180.685,0 -163.756,0C-146.828,0 -133.056,13.767 -133.056,30.695L-133.056,222.449C-133.056,235.623 -122.337,246.342 -109.169,246.342C-96.001,246.342 -85.282,235.623 -85.282,222.449L-85.282,30.695C-85.282,13.767 -71.51,0 -54.581,0C-37.653,0 -23.887,13.767 -23.887,30.695L-23.887,222.449C-23.887,235.623 -13.168,246.342 0,246.342L0,253.15Z" style="fill:rgb(33,33,33);fill-rule:nonzero;"/>
            </g>
            <g transform="matrix(1,0,0,1,555.853,440.558)">
                <path d="M0,251.209C68.124,251.209 108.927,198.695 109.641,125.608C108.927,52.514 68.124,0 0,0C-68.124,0 -108.927,52.514 -109.634,125.608C-108.927,198.695 -68.124,251.209 0,251.209M0,-7.098C75.929,-7.098 116.732,53.578 116.732,125.608C116.732,197.631 75.929,258.307 0,258.307C-75.929,258.307 -116.732,197.631 -116.732,125.608C-116.732,53.578 -75.929,-7.098 0,-7.098" style="fill:rgb(33,33,33);fill-rule:nonzero;"/>
            </g>
            <g transform="matrix(1,0,0,1,0,52.325)">
                <rect x="714.278" y="387.169" width="7.098" height="253.337" style="fill:rgb(33,33,33);"/>
            </g>
            <g transform="matrix(1,0,0,1,1398.32,382.349)">
                <path d="M0,30.701L-6.808,30.701C-6.808,17.527 -17.527,6.808 -30.694,6.808C-43.868,6.808 -54.588,17.527 -54.588,30.701L-61.395,30.701C-61.395,13.773 -47.623,0 -30.694,0C-13.766,0 0,13.773 0,30.701" style="fill:rgb(33,33,33);fill-rule:nonzero;"/>
            </g>
            <g transform="matrix(1,0,0,1,1367.62,440.558)">
                <path d="M0,251.209C68.124,251.209 108.927,198.695 109.641,125.608C108.927,52.514 68.124,0 0,0C-68.124,0 -108.927,52.514 -109.634,125.608C-108.927,198.695 -68.124,251.209 0,251.209M0,-7.098C75.929,-7.098 116.732,53.578 116.732,125.608C116.732,197.631 75.929,258.307 0,258.307C-75.929,258.307 -116.732,197.631 -116.732,125.608C-116.732,53.578 -75.929,-7.098 0,-7.098" style="fill:rgb(33,33,33);fill-rule:nonzero;"/>
            </g>
        </g>
    </g>
</svg>
